<svg xmlns="http://www.w3.org/2000/svg" viewBox="0 0 24 24">
  <path fill="#3d405b" d="M12 6.375C8.893 6.375 6.375 8.893 6.375 12C6.375 15.107 8.893 17.625 12 17.625C15.107 17.625 17.625 15.107 17.625 12C17.625 8.893 15.107 6.375 12 6.375ZM12 15.75C9.929 15.75 8.25 14.071 8.25 12C8.25 9.929 9.929 8.25 12 8.25C14.071 8.25 15.75 9.929 15.75 12C15.75 14.071 14.071 15.75 12 15.75ZM18 5.812C18 6.537 17.412 7.125 16.687 7.125C15.963 7.125 15.375 6.537 15.375 5.812C15.375 5.088 15.963 4.5 16.687 4.5C17.412 4.5 18 5.088 18 5.812ZM21.75 7.144C21.666 5.365 21.259 3.79 19.956 2.487C18.653 1.184 17.078 0.777 15.299 0.693C13.468 0.591 10.532 0.591 8.701 0.693C6.922 0.777 5.347 1.184 4.044 2.487C2.741 3.79 2.334 5.365 2.25 7.144C2.148 8.975 2.148 11.911 2.25 13.742C2.334 15.521 2.741 17.096 4.044 18.399C5.347 19.702 6.922 20.109 8.701 20.193C10.532 20.295 13.468 20.295 15.299 20.193C17.078 20.109 18.653 19.702 19.956 18.399C21.259 17.096 21.666 15.521 21.75 13.742C21.852 11.911 21.852 8.975 21.75 7.144ZM19.523 15.957C19.136 16.932 18.386 17.682 17.411 18.069C15.951 18.649 12.494 18.516 12 18.516C11.506 18.516 8.049 18.649 6.589 18.069C5.614 17.682 4.864 16.932 4.477 15.957C3.897 14.497 4.03 11.04 4.03 10.546C4.03 10.052 3.897 6.595 4.477 5.135C4.864 4.16 5.614 3.41 6.589 3.023C8.049 2.443 11.506 2.576 12 2.576C12.494 2.576 15.951 2.443 17.411 3.023C18.386 3.41 19.136 4.16 19.523 5.135C20.103 6.595 19.97 10.052 19.97 10.546C19.97 11.04 20.103 14.497 19.523 15.957Z"/>
</svg>
