<svg xmlns="http://www.w3.org/2000/svg" viewBox="0 0 24 24">
  <path fill="#3d405b" d="M14.308 2.25C14.477 3.682 15.309 4.986 16.57 5.69C17.363 6.146 18.286 6.385 19.23 6.379V9.197C18.007 9.216 16.809 8.846 15.812 8.142V14.047C15.812 17.23 13.23 19.812 10.047 19.812C6.864 19.812 4.282 17.23 4.282 14.047C4.282 10.864 6.864 8.282 10.047 8.282C10.279 8.282 10.507 8.295 10.731 8.323V11.204C10.517 11.144 10.285 11.111 10.047 11.111C8.425 11.111 7.111 12.425 7.111 14.047C7.111 15.669 8.425 16.983 10.047 16.983C11.669 16.983 12.983 15.669 12.983 14.047V2.25H14.308Z"/>
</svg>
