<svg xmlns="http://www.w3.org/2000/svg" viewBox="0 0 24 24">
  <path fill="#3d405b" d="M18.244 6.276C18.256 6.45 18.256 6.624 18.256 6.8C18.256 12.19 14.154 18.404 6.652 18.404C4.346 18.404 2.2 17.74 0.375 16.61C0.702 16.648 1.016 16.66 1.356 16.66C3.258 16.66 5.014 16.02 6.418 14.916C4.638 14.88 3.142 13.704 2.62 12.046C2.87 12.084 3.118 12.108 3.38 12.108C3.744 12.108 4.11 12.058 4.45 11.97C2.596 11.594 1.204 9.958 1.204 7.998V7.948C1.74 8.246 2.362 8.434 3.018 8.46C1.93 7.744 1.216 6.508 1.216 5.108C1.216 4.38 1.414 3.714 1.75 3.124C3.706 5.522 6.636 7.086 9.942 7.256C9.88 6.97 9.844 6.674 9.844 6.376C9.844 4.186 11.62 2.41 13.81 2.41C14.954 2.41 15.988 2.89 16.716 3.666C17.592 3.492 18.43 3.174 19.19 2.73C18.904 3.63 18.304 4.392 17.524 4.878C18.296 4.792 19.032 4.584 19.71 4.296C19.184 5.056 18.516 5.732 17.742 6.248L18.244 6.276Z"/>
</svg>
