<svg xmlns="http://www.w3.org/2000/svg" viewBox="0 0 24 24">
  <path fill="#3d405b" d="M10.507 2.25C6.024 2.25 2.383 5.853 2.383 10.297C2.383 11.717 2.754 13.104 3.458 14.332L2.25 18.75L6.808 17.563C7.983 18.197 9.304 18.531 10.652 18.531H10.655C15.136 18.531 18.78 14.926 18.78 10.483C18.78 6.04 15.136 2.25 10.507 2.25ZM14.89 13.807C14.703 14.333 13.78 14.801 13.324 14.87C12.868 14.94 12.302 14.97 10.592 14.304C8.454 13.47 7.06 10.992 6.95 10.846C6.84 10.702 6.087 9.7 6.087 8.662C6.087 7.624 6.636 7.114 6.829 6.91C7.021 6.704 7.25 6.655 7.385 6.655C7.52 6.655 7.656 6.657 7.772 6.662C7.883 6.668 8.035 6.62 8.184 6.977C8.373 7.43 8.826 8.54 8.88 8.651C8.935 8.763 8.972 8.893 8.894 9.036C8.816 9.181 8.777 9.27 8.661 9.402C8.545 9.534 8.418 9.697 8.315 9.813C8.199 9.945 8.079 10.086 8.222 10.33C8.366 10.574 8.862 11.378 9.59 12.027C10.525 12.86 11.314 13.12 11.579 13.236C11.843 13.352 11.999 13.335 12.135 13.19C12.27 13.046 12.713 12.53 12.869 12.297C13.025 12.064 13.181 12.103 13.407 12.181C13.633 12.258 14.838 12.85 15.083 12.968C15.328 13.084 15.489 13.142 15.547 13.239C15.604 13.335 15.604 13.797 15.417 14.323L14.89 13.807Z"/>
</svg>
