<svg xmlns="http://www.w3.org/2000/svg" viewBox="0 0 24 24">
  <path fill="#3d405b" d="M18.75 7.467C18.596 6.891 18.146 6.44 17.57 6.287C16.513 6 12.25 6 12.25 6C12.25 6 7.987 6 6.93 6.287C6.354 6.44 5.904 6.891 5.75 7.467C5.463 8.524 5.463 10.75 5.463 10.75C5.463 10.75 5.463 12.976 5.75 14.033C5.904 14.609 6.354 15.06 6.93 15.213C7.987 15.5 12.25 15.5 12.25 15.5C12.25 15.5 16.513 15.5 17.57 15.213C18.146 15.06 18.596 14.609 18.75 14.033C19.037 12.976 19.037 10.75 19.037 10.75C19.037 10.75 19.037 8.524 18.75 7.467ZM10.875 12.787V8.713L14.438 10.75L10.875 12.787Z"/>
</svg>
